<mxfile host="app.diagrams.net" agent="Mozilla/5.0 (Windows NT 10.0; Win64; x64) AppleWebKit/537.36 (KHTML, like Gecko) Chrome/134.0.0.0 Safari/537.36" version="26.2.3" pages="2">
  <diagram name="Página-1" id="2O-RGi5oS_rdy07QGt3t">
    <mxGraphModel dx="2255" dy="1946" grid="1" gridSize="10" guides="1" tooltips="1" connect="1" arrows="1" fold="1" page="1" pageScale="1" pageWidth="827" pageHeight="1169" math="0" shadow="0">
      <root>
        <mxCell id="0" />
        <mxCell id="1" parent="0" />
        <mxCell id="iONdgJ59i6eIJi4nkiC--1" value="" style="endArrow=none;dashed=1;html=1;rounded=0;" edge="1" parent="1">
          <mxGeometry width="50" height="50" relative="1" as="geometry">
            <mxPoint x="-30" y="1140" as="sourcePoint" />
            <mxPoint x="40" y="1140" as="targetPoint" />
          </mxGeometry>
        </mxCell>
        <mxCell id="iONdgJ59i6eIJi4nkiC--2" value="" style="endArrow=none;dashed=1;html=1;rounded=0;" edge="1" parent="1">
          <mxGeometry width="50" height="50" relative="1" as="geometry">
            <mxPoint x="810" y="1160" as="sourcePoint" />
            <mxPoint x="890" y="1160" as="targetPoint" />
          </mxGeometry>
        </mxCell>
        <mxCell id="iONdgJ59i6eIJi4nkiC--11" value="&amp;nbsp;Realizar Matricular&amp;nbsp;" style="ellipse;whiteSpace=wrap;html=1;" vertex="1" parent="1">
          <mxGeometry x="530" y="-10" width="160" height="100" as="geometry" />
        </mxCell>
        <mxCell id="iONdgJ59i6eIJi4nkiC--15" value="Agendar aulas e consultar horários" style="ellipse;whiteSpace=wrap;html=1;" vertex="1" parent="1">
          <mxGeometry x="540" y="120" width="160" height="100" as="geometry" />
        </mxCell>
        <mxCell id="iONdgJ59i6eIJi4nkiC--16" value="" style="endArrow=classic;html=1;rounded=0;" edge="1" parent="1">
          <mxGeometry width="50" height="50" relative="1" as="geometry">
            <mxPoint x="827" y="240" as="sourcePoint" />
            <mxPoint x="720" y="280" as="targetPoint" />
            <Array as="points">
              <mxPoint x="760" y="240" />
              <mxPoint x="760" y="280" />
            </Array>
          </mxGeometry>
        </mxCell>
        <mxCell id="iONdgJ59i6eIJi4nkiC--17" value="Aluno&amp;nbsp;" style="shape=umlActor;verticalLabelPosition=bottom;verticalAlign=top;html=1;outlineConnect=0;" vertex="1" parent="1">
          <mxGeometry x="860" y="10" width="80" height="200" as="geometry" />
        </mxCell>
        <mxCell id="iONdgJ59i6eIJi4nkiC--18" value="Consultar horários&amp;nbsp;" style="ellipse;whiteSpace=wrap;html=1;" vertex="1" parent="1">
          <mxGeometry x="550" y="240" width="160" height="100" as="geometry" />
        </mxCell>
        <mxCell id="iONdgJ59i6eIJi4nkiC--19" value="" style="endArrow=classic;html=1;rounded=0;" edge="1" parent="1">
          <mxGeometry width="50" height="50" relative="1" as="geometry">
            <mxPoint x="820" y="80" as="sourcePoint" />
            <mxPoint x="720" y="40" as="targetPoint" />
            <Array as="points">
              <mxPoint x="760" y="80" />
              <mxPoint x="760" y="40" />
            </Array>
          </mxGeometry>
        </mxCell>
        <mxCell id="iONdgJ59i6eIJi4nkiC--20" value="" style="endArrow=classic;html=1;rounded=0;" edge="1" parent="1">
          <mxGeometry width="50" height="50" relative="1" as="geometry">
            <mxPoint x="827" y="169.5" as="sourcePoint" />
            <mxPoint x="720" y="169.5" as="targetPoint" />
          </mxGeometry>
        </mxCell>
        <mxCell id="iONdgJ59i6eIJi4nkiC--21" value="Instrutor&amp;nbsp;" style="shape=umlActor;verticalLabelPosition=bottom;verticalAlign=top;html=1;outlineConnect=0;" vertex="1" parent="1">
          <mxGeometry x="880" y="385" width="80" height="200" as="geometry" />
        </mxCell>
        <mxCell id="iONdgJ59i6eIJi4nkiC--22" value="" style="endArrow=classic;html=1;rounded=0;" edge="1" parent="1">
          <mxGeometry width="50" height="50" relative="1" as="geometry">
            <mxPoint x="860" y="470" as="sourcePoint" />
            <mxPoint x="740" y="430" as="targetPoint" />
            <Array as="points">
              <mxPoint x="780" y="470" />
              <mxPoint x="780" y="430" />
            </Array>
          </mxGeometry>
        </mxCell>
        <mxCell id="iONdgJ59i6eIJi4nkiC--24" value="Registrar&lt;div&gt;frequências&amp;nbsp;&lt;/div&gt;" style="ellipse;whiteSpace=wrap;html=1;" vertex="1" parent="1">
          <mxGeometry x="570" y="520" width="160" height="100" as="geometry" />
        </mxCell>
        <mxCell id="iONdgJ59i6eIJi4nkiC--25" value="Gerenciar planos&amp;nbsp;" style="ellipse;whiteSpace=wrap;html=1;" vertex="1" parent="1">
          <mxGeometry x="150" y="110" width="160" height="100" as="geometry" />
        </mxCell>
        <mxCell id="iONdgJ59i6eIJi4nkiC--26" value="" style="endArrow=classic;html=1;rounded=0;" edge="1" parent="1">
          <mxGeometry width="50" height="50" relative="1" as="geometry">
            <mxPoint x="827" y="569.5" as="sourcePoint" />
            <mxPoint x="757" y="569.5" as="targetPoint" />
          </mxGeometry>
        </mxCell>
        <mxCell id="iONdgJ59i6eIJi4nkiC--27" value="Gerente&amp;nbsp;" style="shape=umlActor;verticalLabelPosition=bottom;verticalAlign=top;html=1;outlineConnect=0;" vertex="1" parent="1">
          <mxGeometry x="-90" y="140" width="80" height="200" as="geometry" />
        </mxCell>
        <mxCell id="iONdgJ59i6eIJi4nkiC--28" value="" style="endArrow=classic;html=1;rounded=0;" edge="1" parent="1">
          <mxGeometry width="50" height="50" relative="1" as="geometry">
            <mxPoint y="200" as="sourcePoint" />
            <mxPoint x="140" y="160" as="targetPoint" />
            <Array as="points">
              <mxPoint x="40" y="200" />
              <mxPoint x="40" y="160" />
            </Array>
          </mxGeometry>
        </mxCell>
        <mxCell id="iONdgJ59i6eIJi4nkiC--29" value="" style="endArrow=classic;html=1;rounded=0;" edge="1" parent="1">
          <mxGeometry width="50" height="50" relative="1" as="geometry">
            <mxPoint y="280" as="sourcePoint" />
            <mxPoint x="150" y="320" as="targetPoint" />
            <Array as="points">
              <mxPoint x="40" y="280" />
              <mxPoint x="40" y="320" />
            </Array>
          </mxGeometry>
        </mxCell>
        <mxCell id="iONdgJ59i6eIJi4nkiC--30" value="Gerenciar pagamentos&amp;nbsp;" style="ellipse;whiteSpace=wrap;html=1;" vertex="1" parent="1">
          <mxGeometry x="160" y="270" width="160" height="100" as="geometry" />
        </mxCell>
        <mxCell id="iONdgJ59i6eIJi4nkiC--33" value="Criar treinos&amp;nbsp;" style="ellipse;whiteSpace=wrap;html=1;" vertex="1" parent="1">
          <mxGeometry x="550" y="380" width="160" height="100" as="geometry" />
        </mxCell>
      </root>
    </mxGraphModel>
  </diagram>
  <diagram id="PBIq2mU-QEkbXC9M304o" name="Página-2">
    <mxGraphModel dx="1428" dy="777" grid="1" gridSize="10" guides="1" tooltips="1" connect="1" arrows="1" fold="1" page="1" pageScale="1" pageWidth="827" pageHeight="1169" math="0" shadow="0">
      <root>
        <mxCell id="0" />
        <mxCell id="1" parent="0" />
        <mxCell id="DDQ_rJG1GIFdi9_ArfCo-5" value="Aluno" style="swimlane;fontStyle=0;childLayout=stackLayout;horizontal=1;startSize=26;fillColor=none;horizontalStack=0;resizeParent=1;resizeParentMax=0;resizeLast=0;collapsible=1;marginBottom=0;whiteSpace=wrap;html=1;" vertex="1" parent="1">
          <mxGeometry x="60" y="120" width="140" height="78" as="geometry" />
        </mxCell>
        <mxCell id="DDQ_rJG1GIFdi9_ArfCo-6" value="Matricula&amp;nbsp;" style="text;strokeColor=none;fillColor=none;align=left;verticalAlign=top;spacingLeft=4;spacingRight=4;overflow=hidden;rotatable=0;points=[[0,0.5],[1,0.5]];portConstraint=eastwest;whiteSpace=wrap;html=1;" vertex="1" parent="DDQ_rJG1GIFdi9_ArfCo-5">
          <mxGeometry y="26" width="140" height="26" as="geometry" />
        </mxCell>
        <mxCell id="DDQ_rJG1GIFdi9_ArfCo-7" value="Nome&amp;nbsp;" style="text;strokeColor=none;fillColor=none;align=left;verticalAlign=top;spacingLeft=4;spacingRight=4;overflow=hidden;rotatable=0;points=[[0,0.5],[1,0.5]];portConstraint=eastwest;whiteSpace=wrap;html=1;" vertex="1" parent="DDQ_rJG1GIFdi9_ArfCo-5">
          <mxGeometry y="52" width="140" height="26" as="geometry" />
        </mxCell>
        <mxCell id="DDQ_rJG1GIFdi9_ArfCo-9" value="" style="endArrow=classic;html=1;rounded=0;" edge="1" parent="1">
          <mxGeometry width="50" height="50" relative="1" as="geometry">
            <mxPoint x="230" y="158.5" as="sourcePoint" />
            <mxPoint x="310" y="158.5" as="targetPoint" />
          </mxGeometry>
        </mxCell>
        <mxCell id="DDQ_rJG1GIFdi9_ArfCo-10" value="Matricula&amp;nbsp;" style="swimlane;fontStyle=0;childLayout=stackLayout;horizontal=1;startSize=26;fillColor=none;horizontalStack=0;resizeParent=1;resizeParentMax=0;resizeLast=0;collapsible=1;marginBottom=0;whiteSpace=wrap;html=1;" vertex="1" parent="1">
          <mxGeometry x="330" y="120" width="150" height="78" as="geometry" />
        </mxCell>
        <mxCell id="DDQ_rJG1GIFdi9_ArfCo-11" value="Datainicio" style="text;strokeColor=none;fillColor=none;align=left;verticalAlign=top;spacingLeft=4;spacingRight=4;overflow=hidden;rotatable=0;points=[[0,0.5],[1,0.5]];portConstraint=eastwest;whiteSpace=wrap;html=1;" vertex="1" parent="DDQ_rJG1GIFdi9_ArfCo-10">
          <mxGeometry y="26" width="150" height="26" as="geometry" />
        </mxCell>
        <mxCell id="DDQ_rJG1GIFdi9_ArfCo-12" value="Plano" style="text;strokeColor=none;fillColor=none;align=left;verticalAlign=top;spacingLeft=4;spacingRight=4;overflow=hidden;rotatable=0;points=[[0,0.5],[1,0.5]];portConstraint=eastwest;whiteSpace=wrap;html=1;" vertex="1" parent="DDQ_rJG1GIFdi9_ArfCo-10">
          <mxGeometry y="52" width="150" height="26" as="geometry" />
        </mxCell>
        <mxCell id="DDQ_rJG1GIFdi9_ArfCo-14" value="" style="endArrow=classic;html=1;rounded=0;" edge="1" parent="1">
          <mxGeometry width="50" height="50" relative="1" as="geometry">
            <mxPoint x="500" y="158.5" as="sourcePoint" />
            <mxPoint x="570" y="158.5" as="targetPoint" />
          </mxGeometry>
        </mxCell>
        <mxCell id="DDQ_rJG1GIFdi9_ArfCo-15" value="Treino&amp;nbsp;" style="swimlane;fontStyle=0;childLayout=stackLayout;horizontal=1;startSize=26;fillColor=none;horizontalStack=0;resizeParent=1;resizeParentMax=0;resizeLast=0;collapsible=1;marginBottom=0;whiteSpace=wrap;html=1;" vertex="1" parent="1">
          <mxGeometry x="600" y="120" width="140" height="78" as="geometry" />
        </mxCell>
        <mxCell id="DDQ_rJG1GIFdi9_ArfCo-16" value="Id" style="text;strokeColor=none;fillColor=none;align=left;verticalAlign=top;spacingLeft=4;spacingRight=4;overflow=hidden;rotatable=0;points=[[0,0.5],[1,0.5]];portConstraint=eastwest;whiteSpace=wrap;html=1;" vertex="1" parent="DDQ_rJG1GIFdi9_ArfCo-15">
          <mxGeometry y="26" width="140" height="26" as="geometry" />
        </mxCell>
        <mxCell id="DDQ_rJG1GIFdi9_ArfCo-17" value="Tipo" style="text;strokeColor=none;fillColor=none;align=left;verticalAlign=top;spacingLeft=4;spacingRight=4;overflow=hidden;rotatable=0;points=[[0,0.5],[1,0.5]];portConstraint=eastwest;whiteSpace=wrap;html=1;" vertex="1" parent="DDQ_rJG1GIFdi9_ArfCo-15">
          <mxGeometry y="52" width="140" height="26" as="geometry" />
        </mxCell>
      </root>
    </mxGraphModel>
  </diagram>
</mxfile>
